<?xml version="1.0" standalone="no"?>
<!DOCTYPE svg PUBLIC "-//W3C//DTD SVG 20010904//EN"
 "http://www.w3.org/TR/2001/REC-SVG-20010904/DTD/svg10.dtd">
<svg version="1.0" xmlns="http://www.w3.org/2000/svg"
 width="728.000000pt" height="728.000000pt" viewBox="0 0 728.000000 728.000000"
 preserveAspectRatio="xMidYMid meet">
<metadata>
Created by potrace 1.11, written by Peter Selinger 2001-2013
</metadata>
<g transform="translate(0.000000,728.000000) scale(0.100000,-0.100000)"
fill="#000000" stroke="none">
<path d="M3991 6655 c0 -38 4 -90 8 -115 7 -37 9 -28 10 55 0 55 -4 107 -9
115 -7 10 -10 -6 -9 -55z"/>
<path d="M4034 6602 l1 -113 -140 2 c-97 1 -140 -1 -143 -10 -2 -6 -11 -11
-19 -11 -13 0 -13 3 -2 16 11 14 5 15 -53 12 -36 -2 -64 -6 -61 -10 2 -5 -10
-8 -26 -8 -17 0 -31 5 -31 11 0 5 5 7 12 3 7 -4 8 -3 4 5 -5 8 -28 9 -79 4
-40 -4 -84 -7 -99 -8 -16 0 -28 -3 -28 -7 0 -4 -15 -2 -32 3 -41 11 -47 11
-28 -1 13 -8 12 -10 -2 -10 -10 0 -18 -4 -18 -9 0 -5 -17 -7 -39 -4 -23 3 -41
1 -45 -6 -4 -6 -1 -11 8 -11 25 0 19 -13 -17 -34 -35 -21 -39 -23 -63 -25 -9
0 -14 -7 -11 -14 3 -8 1 -20 -4 -28 -7 -11 -9 -9 -9 9 0 12 -5 22 -12 22 -6 0
-9 -3 -5 -6 3 -4 0 -19 -8 -35 -18 -34 -19 -48 -2 -27 15 19 64 32 72 18 3 -5
0 -8 -7 -5 -9 4 -13 -5 -14 -25 -1 -32 10 -40 20 -15 3 8 16 15 29 15 22 0 19
-5 -29 -55 -30 -30 -54 -60 -54 -67 0 -6 6 -3 14 8 8 10 17 16 20 13 3 -3 -2
-14 -12 -25 -59 -68 -84 -106 -73 -117 8 -8 11 -7 11 6 0 9 4 17 8 17 5 0 26
25 46 55 21 29 45 60 54 67 9 7 5 -4 -11 -24 -15 -20 -27 -39 -27 -43 0 -3
-15 -27 -32 -54 -18 -26 -38 -57 -45 -67 -12 -18 -12 -18 -10 1 1 11 -2 20 -8
20 -5 0 -9 -4 -7 -9 4 -12 -19 -37 -29 -30 -5 3 -6 -1 -3 -9 3 -8 -3 -20 -12
-28 -16 -12 -17 -12 -12 3 11 28 -19 28 -31 0 -10 -22 -10 -28 3 -38 25 -18 5
-26 -22 -8 -23 15 -26 15 -46 -6 -17 -19 -18 -22 -3 -17 28 10 19 -10 -13 -30
-16 -9 -30 -20 -30 -24 0 -14 30 -18 42 -6 7 7 35 23 61 36 33 15 64 43 95 82
25 33 49 59 54 59 13 0 10 -8 -17 -48 -14 -20 -25 -40 -25 -44 0 -5 -9 -17
-20 -28 -22 -22 -26 -40 -9 -40 5 0 7 5 4 10 -3 6 5 14 19 20 14 5 44 29 67
52 24 24 39 36 34 28 -15 -25 -79 -105 -92 -113 -7 -4 -13 -17 -13 -27 0 -10
-4 -22 -10 -25 -5 -3 -10 0 -10 7 -1 16 -39 -32 -40 -49 0 -7 5 -13 10 -13 6
0 10 8 10 18 0 12 2 14 9 4 12 -19 144 57 243 140 30 25 37 44 13 34 -12 -4
-12 -1 2 21 15 23 17 24 23 7 6 -16 11 -13 36 23 16 22 37 46 48 53 17 11 16
9 -3 -18 -11 -17 -21 -36 -21 -44 0 -7 -7 -25 -16 -38 l-16 -25 21 24 c23 25
27 21 11 -10 -6 -10 -16 -19 -23 -19 -9 0 -11 -13 -9 -40 3 -33 1 -39 -11 -34
-15 5 -39 -25 -76 -94 -12 -22 -11 -23 8 -17 17 5 19 2 15 -20 -7 -41 13 -20
22 22 l7 38 8 -50 c6 -39 5 -51 -6 -58 -18 -10 -20 -34 -4 -39 7 -2 0 -16 -16
-33 l-27 -30 16 28 c20 34 12 55 -13 33 -10 -9 -21 -13 -24 -9 -4 3 -7 1 -7
-6 0 -7 -5 -9 -12 -5 -7 5 -8 3 -3 -6 4 -7 4 -15 -1 -19 -5 -3 -17 -31 -26
-61 l-17 -55 25 29 c29 33 42 28 25 -11 -10 -23 -10 -26 0 -15 21 20 29 14 19
-14 -6 -14 -10 -32 -10 -41 0 -13 4 -11 19 5 24 29 65 30 58 2 -3 -11 -1 -20
4 -20 5 0 9 4 9 8 0 12 54 10 62 -2 9 -14 19 -3 21 23 1 14 6 20 15 16 7 -3
16 -5 18 -5 2 0 4 -9 4 -19 0 -11 9 -23 20 -26 11 -3 20 -13 20 -20 0 -23 21
-28 35 -9 13 17 14 16 8 -15 -4 -22 -3 -32 4 -28 6 4 13 29 16 57 7 60 35 173
53 215 14 34 14 46 0 -132 -7 -83 10 -111 20 -33 4 27 11 50 16 50 6 0 8 -9 5
-20 -3 -11 -1 -20 3 -20 5 0 9 -15 9 -32 0 -18 2 -44 4 -58 3 -14 6 -29 6 -33
1 -5 5 -6 10 -3 5 4 12 0 14 -6 7 -17 -3 53 -10 72 -11 27 -12 74 -2 59 8 -12
10 -12 18 0 6 10 10 10 16 1 4 -7 1 -17 -6 -22 -12 -8 -11 -9 1 -5 10 2 19 28
27 74 10 65 39 131 50 119 3 -3 -2 -15 -11 -28 -17 -23 -22 -120 -9 -154 5
-14 9 -11 19 17 l12 34 1 -42 c1 -51 11 -80 21 -63 4 6 10 -16 14 -49 6 -54
11 -65 47 -98 41 -38 45 -52 10 -33 -24 13 -27 3 -6 -24 8 -11 15 -27 15 -36
0 -9 13 -41 28 -71 21 -41 26 -62 21 -82 -4 -15 -4 -41 1 -58 9 -30 8 -40 -5
-134 -13 -91 -74 -224 -116 -255 -3 -3 -10 -21 -14 -40 -8 -42 -43 -117 -58
-127 -7 -4 -8 0 -3 13 5 10 12 33 17 49 l9 30 -20 -25 c-18 -24 -18 -22 2 55
20 78 47 134 35 70 l-7 -30 17 33 c9 17 23 32 30 32 7 0 12 3 12 8 -1 4 -1 14
0 22 1 13 2 13 11 0 8 -12 10 -9 10 13 0 15 4 27 8 27 11 0 35 51 27 58 -3 3
-5 0 -5 -8 0 -10 -3 -10 -14 0 -12 9 -13 18 -5 38 13 32 2 135 -12 126 -6 -3
-8 -12 -5 -20 3 -7 1 -16 -4 -19 -6 -4 -10 5 -10 19 0 15 -6 26 -13 26 -7 0
-18 15 -25 33 -10 25 -14 29 -21 18 -5 -8 -8 -27 -6 -43 2 -19 -1 -28 -11 -28
-8 0 -14 8 -14 18 0 13 -2 14 -9 3 -5 -7 -21 -13 -35 -13 -20 0 -28 -7 -32
-25 -5 -17 -9 -21 -14 -12 -5 7 -6 18 -3 26 3 7 2 13 -1 13 -13 0 -27 -55 -27
-107 -1 -34 -5 -51 -12 -46 -7 4 -8 -6 -4 -30 3 -21 2 -37 -4 -37 -5 0 -9 6
-9 13 0 8 -3 7 -9 -3 -6 -8 -7 -18 -4 -23 3 -5 0 -8 -8 -5 -8 3 -14 16 -15 29
-1 48 -15 89 -27 82 -18 -11 -37 -12 -37 -2 0 5 -3 9 -7 9 -5 0 -9 -33 -10
-72 -1 -46 -6 -76 -15 -83 -17 -13 -41 -82 -33 -95 4 -6 2 -16 -3 -23 -5 -7
-12 -21 -15 -32 -4 -11 -5 -3 -4 18 2 20 0 37 -4 37 -4 0 -10 10 -13 23 -2 12
-4 5 -2 -15 1 -21 -1 -38 -5 -38 -4 0 -10 -23 -14 -51 -4 -28 -11 -46 -15 -40
-4 7 -11 11 -16 9 -21 -6 -95 13 -92 24 9 25 35 31 66 15 19 -9 34 -12 38 -6
10 16 14 209 5 209 -5 0 -8 6 -8 13 1 6 -5 40 -12 75 -10 44 -17 60 -24 53
-14 -14 -30 -14 -22 -1 11 17 -5 11 -41 -16 -35 -27 -74 -82 -74 -104 0 -10 3
-10 15 0 19 16 40 3 24 -16 -6 -8 -8 -14 -3 -14 4 0 3 -5 -4 -12 -7 -7 -12
-20 -12 -30 0 -10 -4 -18 -10 -18 -5 0 -10 5 -10 10 0 6 -7 10 -15 10 -9 0
-16 -14 -20 -37 -3 -21 -8 -46 -10 -55 -2 -10 1 -18 7 -18 5 0 6 -5 3 -11 -4
-6 -12 -8 -19 -6 -6 2 -29 -4 -51 -14 l-40 -18 47 0 c53 -1 47 8 68 -103 24
-125 123 -255 208 -277 129 -32 193 -43 228 -38 156 25 177 21 134 -25 -11
-12 -25 -37 -31 -57 -6 -20 -17 -41 -24 -46 -15 -12 -18 -26 -16 -67 l1 -28
47 31 c64 40 113 81 113 95 0 6 6 17 14 23 11 9 12 20 4 51 -6 22 -14 38 -18
35 -5 -3 -6 4 -3 15 3 11 10 20 15 20 5 0 6 -4 3 -10 -3 -5 -2 -10 4 -10 11 0
91 110 91 126 0 6 7 17 15 24 8 7 15 20 15 29 0 9 9 24 21 34 14 13 18 24 13
40 -3 12 -3 19 1 15 6 -6 45 26 45 38 0 3 7 12 15 21 9 8 14 20 12 26 -3 11
33 51 63 67 45 24 96 -3 64 -34 -10 -10 -14 -26 -11 -42 3 -17 1 -24 -8 -20
-9 3 -11 -2 -8 -15 4 -15 9 -17 16 -10 13 13 57 14 57 2 0 -5 -9 -13 -21 -16
-16 -5 -18 -10 -10 -18 12 -12 15 -13 71 -16 64 -3 93 -46 92 -140 -1 -50 -21
-92 -65 -133 -38 -37 -40 -38 -115 -38 -144 0 -232 -26 -232 -67 0 -20 46 -16
134 12 43 14 95 25 115 25 21 0 42 5 48 11 13 13 43 5 43 -11 0 -7 -17 -18
-37 -26 -55 -22 -76 -69 -69 -158 2 -37 7 -71 10 -74 3 -3 6 1 6 8 0 7 3 10 7
7 3 -4 12 -2 20 4 10 9 13 8 13 -1 0 -17 49 -4 76 21 16 15 23 16 32 7 16 -16
15 -23 -4 -42 -10 -11 -24 -14 -41 -10 -14 4 -28 2 -32 -4 -4 -6 -25 -14 -46
-18 -67 -10 -284 -101 -347 -146 -15 -10 -30 -18 -35 -17 -4 1 -20 -1 -35 -5
-19 -6 -34 -3 -50 8 -31 22 -40 20 -76 -14 -24 -23 -32 -40 -34 -72 -4 -60 21
-63 69 -8 36 40 88 72 128 76 70 8 102 12 115 17 35 12 152 24 243 25 90 1 97
0 97 -18 0 -11 -7 -20 -15 -20 -7 0 -18 -6 -22 -14 -4 -8 -35 -30 -69 -49 -33
-20 -67 -43 -74 -53 -18 -21 -23 -54 -10 -69 5 -6 7 -15 3 -18 -3 -4 2 -7 12
-7 15 0 16 -3 7 -12 -23 -23 -11 -26 86 -22 87 4 101 2 121 -15 19 -16 21 -23
11 -41 -6 -11 -8 -29 -5 -40 16 -50 15 -61 -5 -55 -14 4 -20 2 -20 -9 0 -9
-11 -18 -25 -22 -14 -4 -24 -8 -22 -10 2 -3 -6 -17 -20 -32 -13 -15 -48 -58
-79 -96 -50 -63 -94 -99 -112 -93 -15 4 -72 -26 -72 -39 0 -7 -10 -16 -21 -19
-21 -7 -21 -12 -15 -84 7 -96 23 -242 28 -260 2 -10 -19 -20 -67 -33 -113 -32
-126 -32 -206 -3 -72 26 -117 29 -174 10 -16 -6 -17 -5 -5 4 12 8 5 11 -30 13
-25 1 -65 3 -90 4 -67 3 -90 -3 -90 -26 0 -32 -57 -76 -116 -89 -33 -8 -54
-18 -54 -26 0 -14 -37 -17 -55 -5 -5 4 -28 11 -50 15 -35 6 -38 8 -22 20 17
13 23 35 9 35 -4 0 -13 -5 -20 -12 -6 -6 -14 -9 -17 -6 -3 3 0 12 8 20 8 8 18
33 22 56 3 22 13 46 21 53 19 16 18 33 -2 25 -14 -5 -15 -4 -4 9 7 8 16 12 22
9 10 -7 38 14 38 28 0 5 -5 6 -12 2 -7 -4 -8 -3 -4 4 4 7 11 12 16 12 4 0 55
46 113 103 68 66 133 119 186 150 44 27 81 50 81 52 0 3 -13 2 -29 -1 -60 -12
-335 92 -483 183 -38 24 -63 33 -77 28 -11 -3 -33 1 -50 9 -48 25 -87 21 -112
-14 -12 -16 -36 -32 -53 -36 -26 -6 -34 -2 -61 29 -16 19 -41 64 -54 98 -69
187 -105 271 -117 276 -8 3 -14 9 -14 15 0 5 5 6 11 2 7 -4 9 0 6 12 -3 11 -9
45 -13 77 -6 58 -7 59 -35 53 -16 -3 -29 -1 -29 4 0 6 -12 10 -26 10 -14 0
-23 -4 -19 -10 3 -5 1 -10 -4 -10 -6 0 -11 6 -11 13 0 17 -140 88 -230 117
-96 31 -213 50 -315 50 -180 0 -501 -38 -562 -66 -17 -8 -35 -14 -40 -14 -17
0 -75 -59 -68 -69 3 -6 0 -11 -8 -11 -13 0 -37 -38 -43 -68 -1 -7 -11 -20 -21
-30 -33 -29 -90 -106 -114 -153 -29 -55 -31 -57 -108 -104 -36 -22 -91 -64
-122 -92 l-56 -53 8 -47 c17 -93 51 -220 96 -357 330 -1019 1162 -1790 2208
-2049 470 -117 1005 -117 1474 -2 790 195 1462 683 1896 1375 309 492 472
1077 463 1660 l-3 185 -115 -3 c-63 -1 -165 -9 -226 -17 -62 -9 -130 -17 -153
-19 -23 -2 -57 -15 -79 -30 -21 -14 -42 -26 -46 -26 -17 0 -222 -107 -263
-137 -33 -24 -61 -33 -123 -42 -44 -7 -108 -21 -142 -33 -66 -21 -89 -21 -291
1 -78 8 -113 18 -173 47 -83 40 -210 62 -245 43 -13 -6 -25 -6 -38 1 -13 6
-57 8 -122 3 l-102 -6 6 69 c4 38 7 114 7 169 1 55 4 119 7 142 5 38 7 41 24
32 22 -11 102 -4 107 10 4 11 61 3 76 -10 5 -4 18 -3 28 2 15 8 23 7 34 -8 13
-17 13 -17 14 5 0 13 6 22 16 22 8 0 12 -4 9 -10 -3 -5 4 -10 17 -10 13 0 30
0 38 0 8 0 32 2 53 5 23 3 37 1 37 -5 0 -6 5 -8 10 -5 6 3 10 -4 10 -17 0 -18
-2 -20 -10 -8 -5 8 -10 10 -10 4 0 -6 6 -17 14 -23 11 -10 17 -8 25 6 6 10 11
12 11 5 0 -8 8 -10 25 -6 14 3 25 2 25 -2 0 -5 25 -7 56 -6 45 3 57 8 61 23 4
13 14 19 34 19 38 0 37 -17 -1 -25 -31 -7 -39 -20 -17 -28 6 -3 -8 -6 -33 -7
l-45 -2 45 -14 c25 -8 68 -15 95 -16 63 -2 68 -5 54 -29 -7 -15 -19 -20 -42
-18 -35 2 -77 -9 -77 -21 0 -7 43 -6 240 6 69 4 135 6 148 6 12 -1 22 2 22 6
0 4 38 7 84 8 50 0 91 5 99 13 10 7 29 9 57 5 31 -5 44 -3 51 7 8 12 10 12 18
0 5 -8 14 -10 21 -6 7 4 43 8 81 8 50 0 69 3 69 13 0 7 -13 12 -32 12 -68 -1
-78 2 -78 20 0 13 -2 14 -9 3 -5 -8 -11 -9 -15 -3 -7 12 45 52 68 52 21 0 20
-10 -1 -25 -25 -19 -9 -31 39 -29 24 1 44 2 45 3 1 1 -2 13 -8 27 -9 27 -9 27
31 20 23 -4 49 -2 61 4 15 8 23 7 34 -4 8 -8 15 -19 15 -25 0 -6 9 -11 20 -11
11 0 20 -4 20 -10 0 -12 -2 -12 -34 0 -16 6 -27 6 -31 0 -4 -6 -17 -10 -30
-10 -13 0 -36 -5 -52 -11 l-28 -12 25 -7 c14 -4 33 -3 43 2 9 5 22 6 27 3 6
-3 10 1 10 9 0 9 5 16 10 16 6 0 10 -6 10 -14 0 -15 41 -14 105 4 17 5 73 9
125 10 104 1 140 7 140 22 0 6 -8 7 -17 4 -32 -13 -235 -16 -249 -5 -7 6 -18
8 -24 4 -5 -3 -15 -3 -21 0 -11 8 78 95 97 95 6 0 17 7 24 15 7 8 16 12 21 9
5 -3 -11 -25 -36 -49 l-45 -43 50 1 c44 2 50 5 50 23 0 21 17 34 46 34 9 0 14
-11 14 -30 0 -24 4 -30 23 -30 12 0 32 -3 45 -6 30 -8 30 19 0 40 -20 14 -36
62 -16 50 4 -3 8 -12 8 -20 0 -8 5 -14 10 -14 6 0 10 3 10 8 0 26 -32 198 -38
203 -4 4 -43 3 -87 -1 -219 -21 -265 -22 -265 -6 0 12 12 16 53 17 28 0 63 2
77 4 14 2 69 7 122 10 l98 7 -6 26 c-31 144 -81 312 -92 311 -4 -1 -16 -1 -27
0 -16 1 -17 3 -6 10 8 5 16 17 17 25 1 9 -2 13 -9 9 -7 -4 -8 0 -3 12 8 21
-41 151 -105 280 l-39 80 6 -50 c5 -46 8 -124 5 -167 -1 -10 -6 -18 -12 -18
-6 0 -8 16 -6 41 4 39 -8 43 -15 4 -3 -16 -11 -20 -45 -20 -23 0 -48 -6 -54
-12 -10 -11 -6 -13 21 -13 45 0 31 -12 -21 -17 l-42 -4 6 74 c10 113 27 217
43 267 9 25 17 52 20 60 5 15 -71 148 -122 216 -18 24 -30 31 -38 25 -14 -12
-52 -7 -49 6 1 6 -10 8 -25 6 -15 -1 -20 0 -12 4 8 3 21 13 30 22 13 13 13 14
-5 7 -33 -13 -39 -12 -43 7 -2 12 3 17 17 17 49 0 13 61 -126 213 -159 173
-319 316 -482 431 l-94 66 -36 -22 c-96 -58 -142 -92 -206 -153 -124 -119
-121 -117 -206 -105 -41 6 -96 17 -124 25 -74 21 -157 26 -151 9 6 -17 1 -17
-25 -4 -25 14 -24 6 2 -19 15 -14 19 -25 14 -42 -7 -21 -10 -19 -30 26 -12 28
-32 59 -44 69 -21 19 -21 19 -22 -10 -1 -16 -1 -33 0 -38 1 -5 -7 -6 -19 -3
-11 3 -20 2 -20 -3 0 -4 14 -10 30 -13 17 -4 30 -11 30 -17 0 -13 -27 -13 -35
0 -3 6 -19 10 -36 10 -27 0 -34 10 -31 41 1 3 -10 5 -23 4 -13 -2 -26 3 -29
11 -3 8 -1 14 5 14 6 0 9 6 6 13 -2 6 6 20 17 31 l21 19 -29 -5 c-26 -5 -28
-4 -22 24 4 21 3 27 -7 21 -6 -4 -4 5 6 20 9 15 14 27 10 27 -4 0 1 6 11 13
22 16 17 53 -6 51 -11 -1 -14 4 -11 14 4 10 2 13 -6 8 -13 -8 -61 18 -61 34 0
4 7 16 16 24 14 15 13 16 -13 16 -71 0 -144 39 -123 65 13 16 -48 41 -63 26
-14 -14 -74 -14 -83 0 -5 9 3 10 30 5 29 -6 36 -4 36 9 0 8 -9 15 -19 15 -34
0 -61 47 -62 109 -1 31 -5 83 -9 116 -6 50 -8 41 -6 -53z m-40 -164 c-3 -4 10
-11 28 -16 30 -8 31 -9 11 -16 -14 -4 -36 0 -62 14 -23 11 -41 21 -41 23 0 1
15 2 34 2 19 0 32 -3 30 -7z m211 -89 c5 -6 5 -13 -2 -20 -8 -8 -19 -6 -42 7
-17 10 -31 22 -31 26 0 9 62 -2 75 -13z m145 -119 c0 -5 -7 -7 -15 -4 -8 4
-12 10 -9 15 6 11 24 2 24 -11z m-978 -112 c-7 -7 -12 -8 -12 -2 0 14 12 26
19 19 2 -3 -1 -11 -7 -17z m958 -34 c0 -2 -7 -4 -15 -4 -8 0 -15 4 -15 10 0 5
7 7 15 4 8 -4 15 -8 15 -10z m40 -4 c-19 -13 -30 -13 -30 0 0 6 10 10 23 10
18 0 19 -2 7 -10z m-639 -31 c70 -23 172 -69 167 -75 -2 -2 -38 10 -78 26 -41
16 -100 38 -130 49 -74 27 -40 27 41 0z m569 7 c0 -3 -4 -8 -10 -11 -5 -3 -10
-1 -10 4 0 6 5 11 10 11 6 0 10 -2 10 -4z m44 -26 c-10 -4 -21 -6 -24 -3 -8 7
24 22 34 16 5 -4 1 -10 -10 -13z m-1164 -5 c-7 -9 -15 -13 -17 -11 -7 7 7 26
19 26 6 0 6 -6 -2 -15z m57 -32 c-3 -10 -5 -2 -5 17 0 19 2 27 5 18 2 -10 2
-26 0 -35z m155 -3 c-34 -34 -42 -37 -42 -15 0 8 5 15 11 15 6 0 17 7 25 15 9
8 20 15 25 15 6 0 -3 -13 -19 -30z m543 -30 c3 -6 -1 -7 -9 -4 -18 7 -21 14
-7 14 6 0 13 -4 16 -10z m-475 -24 c0 -2 -16 -13 -35 -25 -41 -24 -48 -14 -7
11 26 17 42 22 42 14z m1545 -15 c-3 -6 -11 -11 -16 -11 -5 0 -4 6 3 14 14 16
24 13 13 -3z m-1655 -41 c0 -5 -8 -10 -17 -10 -15 0 -16 2 -3 10 19 12 20 12
20 0z m1295 -30 c19 -36 19 -40 1 -40 -15 0 -26 21 -26 51 0 27 7 24 25 -11z
m56 -53 c-13 -13 -15 21 -3 50 6 15 8 13 10 -11 2 -16 -1 -33 -7 -39z m249 43
c0 -13 -20 -13 -40 0 -12 8 -9 10 13 10 15 0 27 -4 27 -10z m-397 -25 c32 -28
36 -49 7 -40 -26 8 -25 -2 3 -26 12 -10 17 -18 11 -19 -17 0 -69 52 -69 70 0
8 -8 16 -17 18 -10 2 -18 -2 -18 -8 0 -6 -4 -8 -10 -5 -21 13 -9 27 20 23 17
-3 30 -1 30 4 0 14 14 8 43 -17z m232 1 c12 -12 12 -15 -1 -20 -20 -8 -34 1
-34 20 0 18 17 18 35 0z m545 -4 c0 -16 -30 -50 -50 -55 -27 -7 -25 1 7 35 26
28 43 35 43 20z m-165 -59 c-28 -20 -41 -16 -20 7 10 11 22 17 28 13 6 -4 3
-12 -8 -20z m-745 -14 c0 -6 -4 -7 -10 -4 -5 3 -10 11 -10 16 0 6 5 7 10 4 6
-3 10 -11 10 -16z m-541 -69 l-1 -25 -8 25 c-4 14 -8 32 -9 40 -1 13 0 13 9 0
5 -8 9 -26 9 -40z m706 41 c3 -5 1 -12 -5 -16 -5 -3 -10 1 -10 9 0 18 6 21 15
7z m62 -43 c-3 -8 -6 -5 -6 6 -1 11 2 17 5 13 3 -3 4 -12 1 -19z m-27 -33 c0
-5 -5 -3 -10 5 -5 8 -10 20 -10 25 0 6 5 3 10 -5 5 -8 10 -19 10 -25z m-733
-17 c-3 -8 -6 -5 -6 6 -1 11 2 17 5 13 3 -3 4 -12 1 -19z m782 -50 c-7 -13
-12 -36 -11 -53 1 -23 -1 -20 -9 12 -8 36 -7 45 8 60 22 23 29 12 12 -19z
m1361 2 c-8 -5 -22 -10 -30 -10 -13 0 -13 1 0 10 8 5 22 10 30 10 13 0 13 -1
0 -10z m-1160 -25 c0 -8 -4 -15 -10 -15 -5 0 -7 7 -4 15 4 8 8 15 10 15 2 0 4
-7 4 -15z m-1522 -40 c-3 -3 -9 2 -12 12 -6 14 -5 15 5 6 7 -7 10 -15 7 -18z
m1719 -11 c-3 -3 -12 -4 -19 -1 -8 3 -5 6 6 6 11 1 17 -2 13 -5z m40 0 c-3 -3
-12 -4 -19 -1 -8 3 -5 6 6 6 11 1 17 -2 13 -5z m401 -1 c-10 -2 -28 -2 -40 0
-13 2 -5 4 17 4 22 1 32 -1 23 -4z m-2138 -29 c0 -8 -4 -12 -10 -9 -5 3 -10
13 -10 21 0 8 5 12 10 9 6 -3 10 -13 10 -21z m1873 19 c-7 -2 -19 -2 -25 0 -7
3 -2 5 12 5 14 0 19 -2 13 -5z m397 -3 c16 -6 6 -7 -30 -3 -30 3 -57 7 -59 9
-8 7 64 2 89 -6z m-705 -20 c-11 -5 -31 -8 -45 -8 l-25 0 25 8 c14 4 34 8 45
8 l20 1 -20 -9z m818 3 c-7 -2 -21 -2 -30 0 -10 3 -4 5 12 5 17 0 24 -2 18 -5z
m80 -10 c-13 -2 -33 -2 -45 0 -13 2 -3 4 22 4 25 0 35 -2 23 -4z m80 -10 c-7
-2 -19 -2 -25 0 -7 3 -2 5 12 5 14 0 19 -2 13 -5z m-1084 -7 c-2 -2 -15 -9
-29 -15 -24 -11 -24 -11 -6 3 16 13 49 24 35 12z m818 -2 c-3 -3 -12 -4 -19
-1 -8 3 -5 6 6 6 11 1 17 -2 13 -5z m457 -14 c20 -8 20 -9 1 -9 -11 0 -47 7
-80 15 l-60 14 59 -6 c33 -3 69 -10 80 -14z m-484 -30 c11 -7 -3 -9 -45 -8
-56 1 -58 1 -20 8 22 4 42 8 45 8 3 1 12 -3 20 -8z m444 1 c4 -5 -3 -7 -14 -4
-23 6 -26 13 -6 13 8 0 17 -4 20 -9z m-1284 -31 c-19 -16 -39 -29 -44 -30 -5
0 8 14 29 30 49 39 60 39 15 0z m-90 15 c0 -2 -10 -9 -22 -15 -22 -11 -22 -10
-4 4 21 17 26 19 26 11z m1033 -2 c-13 -2 -35 -2 -50 0 -16 2 -5 4 22 4 28 0
40 -2 28 -4z m327 -2 c0 -8 -90 -3 -99 5 -2 2 19 4 47 4 29 0 52 -4 52 -9z
m-608 -17 c43 -6 44 -7 41 -38 l-3 -31 16 32 17 32 161 3 c255 5 356 0 356
-19 0 -13 25 -63 75 -148 18 -30 18 -32 -8 -84 -15 -29 -27 -59 -27 -67 0 -8
-4 -14 -10 -14 -5 0 -12 -11 -16 -25 -3 -14 -15 -30 -25 -36 -11 -5 -19 -15
-17 -22 5 -28 -14 -78 -28 -73 -15 6 -46 -32 -38 -46 3 -4 -1 -6 -8 -3 -34 14
-48 66 -54 203 -4 104 -9 141 -22 161 -9 14 -22 35 -28 45 -21 39 -35 31 -27
-16 7 -42 7 -52 1 -115 -4 -39 -5 -39 -35 -11 -19 18 -26 20 -32 9 -5 -7 -13
-11 -19 -7 -17 10 -26 -15 -24 -68 0 -30 -4 -54 -11 -58 -8 -5 -4 -8 11 -8 12
0 22 -4 22 -10 0 -5 -14 -10 -31 -10 -28 0 -31 -3 -25 -22 3 -13 6 -26 6 -30
0 -4 15 -2 32 3 18 5 34 9 35 9 2 0 3 -10 2 -22 0 -21 -1 -21 -8 -4 -5 14 -10
16 -15 7 -4 -6 -5 -19 -2 -28 8 -21 -10 -33 -49 -33 -17 0 -36 -5 -42 -11 -8
-8 -13 -3 -18 20 -3 17 -20 58 -36 92 -27 55 -32 60 -54 55 -26 -7 -38 11 -70
108 -16 51 -38 87 -88 146 -39 46 -55 54 -73 40 -15 -13 -20 -35 -6 -26 5 3
14 -12 22 -32 7 -20 41 -93 74 -162 59 -118 73 -154 111 -274 24 -77 22 -83
-32 -89 -40 -4 -52 -2 -70 16 -13 11 -23 27 -23 34 0 14 -88 251 -117 313 -35
77 -66 89 -99 37 -33 -49 -38 -93 -13 -111 31 -21 15 -38 -19 -20 -15 7 -33
14 -39 14 -16 0 -16 -3 3 54 35 102 107 200 194 261 30 22 57 42 60 45 11 12
56 39 66 39 6 1 31 -2 56 -5z m-848 -29 c-22 -17 -34 -19 -34 -6 0 5 8 12 18
14 32 9 36 7 16 -8z m481 -92 c-8 -106 -33 -211 -69 -288 -8 -16 -20 -45 -26
-62 -20 -53 -37 -40 -50 36 -14 84 -30 102 -68 79 -33 -20 -39 -43 -17 -64 12
-13 13 -19 4 -24 -9 -6 -7 -19 6 -53 17 -44 15 -77 -3 -77 -11 0 -37 79 -33
100 2 8 -1 12 -5 8 -4 -5 -21 3 -38 16 -40 30 -76 38 -178 38 l-83 0 45 14
c33 10 65 33 116 84 40 38 76 70 81 70 5 0 35 22 68 50 32 27 61 47 65 45 4
-2 22 7 40 20 40 30 44 31 31 7 -14 -27 -21 -72 -11 -72 5 0 32 27 61 60 29
33 55 60 59 60 5 0 6 -21 5 -47z m-371 -82 c-16 -16 -54 -63 -84 -104 -58 -81
-90 -98 -90 -49 1 17 19 50 51 90 49 61 92 91 133 92 17 0 16 -4 -10 -29z
m-274 -241 c-8 -5 -22 -10 -30 -10 -13 0 -13 1 0 10 8 5 22 10 30 10 13 0 13
-1 0 -10z m-54 -19 c-3 -5 -16 -11 -28 -14 -22 -6 -22 -5 -4 8 22 17 40 20 32
6z m1467 -28 c-7 -2 -19 -2 -25 0 -7 3 -2 5 12 5 14 0 19 -2 13 -5z m-113 -58
c0 -8 -7 -15 -15 -15 -26 0 -18 20 13 29 1 1 2 -6 2 -14z m-1550 -25 c0 -5 -2
-10 -4 -10 -3 0 -8 5 -11 10 -3 6 -1 10 4 10 6 0 11 -4 11 -10z m-539 -23
c-13 -13 -26 -3 -16 12 3 6 11 8 17 5 6 -4 6 -10 -1 -17z m352 8 c-3 -9 -8
-14 -10 -11 -3 3 -2 9 2 15 9 16 15 13 8 -4z m215 -17 c-6 -18 -13 -27 -15
-21 -4 11 13 53 22 53 2 0 -1 -15 -7 -32z m1431 10 c19 -20 19 -22 3 -34 -25
-19 -35 -17 -29 6 3 11 1 23 -4 26 -8 5 -3 24 6 24 2 0 13 -10 24 -22z m91 8
c0 -9 -30 -14 -35 -6 -4 6 3 10 14 10 12 0 21 -2 21 -4z m-2470 -36 c0 -5 -4
-10 -10 -10 -5 0 -10 5 -10 10 0 6 5 10 10 10 6 0 10 -4 10 -10z m2450 0 c0
-5 -9 -10 -20 -10 -11 0 -20 5 -20 10 0 6 9 10 20 10 11 0 20 -4 20 -10z
m-817 -67 c-3 -7 0 -13 7 -13 6 0 8 -4 5 -10 -3 -5 -17 -10 -31 -10 -21 0 -23
3 -15 19 6 10 8 21 4 24 -3 4 0 14 8 23 12 15 14 14 20 -3 3 -10 4 -24 2 -30z
m1199 5 c-7 -7 -12 -8 -12 -2 0 14 12 26 19 19 2 -3 -1 -11 -7 -17z m-2462 -8
c0 -11 -2 -20 -4 -20 -2 0 -6 9 -9 20 -3 11 -1 20 4 20 5 0 9 -9 9 -20z m2395
10 c3 -5 -1 -10 -9 -10 -9 0 -16 5 -16 10 0 6 4 10 9 10 6 0 13 -4 16 -10z
m332 -22 c-3 -7 -5 -2 -5 12 0 14 2 19 5 13 2 -7 2 -19 0 -25z m-1004 5 c-7
-2 -19 -2 -25 0 -7 3 -2 5 12 5 14 0 19 -2 13 -5z m-1176 -50 c-3 -10 -5 -4
-5 12 0 17 2 24 5 18 2 -7 2 -21 0 -30z m2149 17 c-45 -14 -193 -24 -199 -14
-3 5 9 9 27 8 17 0 52 2 76 6 25 4 63 8 85 8 38 0 39 0 11 -8z m-2249 -21 c14
-14 6 -39 -13 -39 -8 0 -14 -4 -14 -10 0 -5 -7 -10 -15 -10 -18 0 -55 -79 -55
-117 0 -28 -36 -93 -51 -93 -6 0 -7 -5 -4 -10 3 -6 -1 -13 -9 -16 -9 -3 -16
-11 -16 -17 0 -5 -12 -26 -26 -45 -24 -30 -28 -32 -37 -17 -7 13 -4 22 15 39
33 28 62 76 47 76 -8 0 -7 5 2 16 8 9 22 35 31 58 9 22 17 34 18 26 2 -35 29
38 30 80 1 78 7 90 49 90 20 0 42 -5 48 -11z m2433 -19 c0 -22 -5 -30 -17 -30
-14 0 -15 2 -4 9 7 5 10 14 7 20 -7 10 0 31 10 31 2 0 4 -13 4 -30z m-580 -10
c0 -5 -2 -10 -4 -10 -3 0 -8 5 -11 10 -3 6 -1 10 4 10 6 0 11 -4 11 -10z
m-1994 -58 c-12 -11 -18 7 -10 30 l8 23 4 -23 c2 -13 1 -26 -2 -30z m1514 38
c0 -5 -2 -10 -4 -10 -3 0 -8 5 -11 10 -3 6 -1 10 4 10 6 0 11 -4 11 -10z m285
0 c-3 -5 -27 -9 -53 -9 -46 2 -46 2 -12 9 53 11 72 11 65 0z m702 4 c-3 -3
-12 -4 -19 -1 -8 3 -5 6 6 6 11 1 17 -2 13 -5z m-2902 -74 c-4 -33 -14 -67
-22 -75 -8 -8 -11 -15 -7 -15 4 0 -5 -13 -21 -30 -30 -31 -28 -38 6 -20 17 10
18 9 7 -14 -6 -14 -15 -23 -19 -20 -5 3 -9 -1 -9 -9 0 -17 -36 -49 -75 -66
-29 -12 -29 -12 -12 7 15 16 16 21 3 31 -9 7 -17 8 -20 2 -3 -5 0 -12 6 -15 7
-3 3 -3 -10 0 -15 4 -24 0 -28 -10 -3 -9 -10 -14 -14 -11 -5 3 -17 -5 -27 -17
-20 -24 -56 -48 -73 -48 -5 0 -10 8 -10 18 0 13 -2 14 -9 4 -7 -11 -10 -10
-15 3 -3 9 -3 22 1 28 3 7 3 9 -2 5 -12 -11 -34 37 -37 80 -2 20 -7 40 -13 44
-6 5 -5 12 3 20 11 11 19 7 43 -22 16 -19 29 -46 29 -60 0 -20 -2 -22 -10 -10
-8 13 -10 12 -10 -3 0 -13 5 -17 18 -13 9 3 30 7 46 10 34 6 76 32 76 47 0 6
7 9 14 6 11 -5 17 5 22 39 3 24 11 44 16 44 5 0 6 -5 3 -11 -10 -15 37 13 52
31 6 8 18 24 27 35 14 19 15 19 13 -12 -1 -17 -4 -30 -7 -28 -9 4 -49 -84 -41
-90 20 -12 101 147 101 199 0 11 3 17 6 13 3 -3 3 -33 -1 -67z m1755 50 c20
-20 60 -28 60 -12 0 5 36 9 81 9 44 1 79 -1 77 -3 -6 -6 -274 -42 -363 -48
-44 -3 -96 -10 -115 -16 -41 -12 -53 -5 -16 9 14 6 26 15 26 21 0 14 27 12 33
-2 3 -10 9 -10 24 -2 11 7 31 10 46 7 16 -3 27 -1 27 6 0 6 -7 11 -17 11 -24
0 -13 6 24 13 26 5 31 3 26 -8 -4 -11 -1 -13 11 -9 9 3 16 12 16 19 0 12 14
22 33 24 4 1 16 -8 27 -19z m325 10 c-3 -5 -25 -9 -48 -9 l-42 2 40 7 c22 4
44 8 48 9 5 0 5 -3 2 -9z m335 0 c0 -5 -5 -10 -11 -10 -5 0 -7 5 -4 10 3 6 8
10 11 10 2 0 4 -4 4 -10z m-52 -13 c8 -10 6 -13 -11 -14 -12 0 -16 1 -9 4 6 3
10 9 6 14 -8 14 2 11 14 -4z m-1931 -19 c-3 -8 -6 -5 -6 6 -1 11 2 17 5 13 3
-3 4 -12 1 -19z m2042 -1 c-2 -1 -13 -9 -24 -17 -19 -14 -19 -14 -6 3 7 9 18
17 24 17 6 0 8 -1 6 -3z m-1130 -23 c8 9 28 16 45 16 24 0 28 -3 16 -10 -13
-9 -13 -11 0 -20 8 -5 22 -10 30 -11 8 -1 -10 -5 -40 -10 -113 -18 -112 -18
-104 0 3 9 9 24 11 34 5 16 7 16 17 1 11 -14 13 -14 25 0z m111 1 c-27 -14
-36 -13 -25 4 3 6 16 11 28 11 21 -1 21 -1 -3 -15z m942 -34 c-3 -9 -32 -9
-32 0 0 5 4 9 10 9 5 0 7 8 4 18 -4 13 -2 12 7 -3 7 -11 12 -22 11 -24z m44 4
c-8 -8 -18 -15 -22 -15 -3 0 -1 7 6 15 7 8 17 15 22 15 5 0 3 -7 -6 -15z m74
5 c0 -5 -4 -10 -10 -10 -5 0 -10 5 -10 10 0 6 5 10 10 10 6 0 10 -4 10 -10z
m-2627 -25 c-3 -9 -8 -14 -10 -11 -3 3 -2 9 2 15 9 16 15 13 8 -4z m137 -39
c-9 -27 -17 -36 -33 -35 l-22 0 21 11 c13 6 25 24 28 41 3 16 9 28 12 24 3 -3
1 -22 -6 -41z m295 14 c-3 -5 -11 -10 -16 -10 -6 0 -7 5 -4 10 3 6 11 10 16
10 6 0 7 -4 4 -10z m23 -59 c-35 -69 -67 -104 -87 -92 -17 11 -7 61 19 89 11
12 20 26 20 32 0 5 13 10 29 10 17 0 33 5 36 10 3 6 8 10 10 10 1 0 -11 -27
-27 -59z m-354 -35 c-3 -14 -10 -26 -15 -26 -12 0 -11 4 3 35 14 31 21 26 12
-9z m-38 -64 c-18 -16 -18 -16 -6 6 6 13 14 21 18 18 3 -4 -2 -14 -12 -24z
m2561 -2 c10 -26 9 -33 -8 -49 -16 -14 -44 -20 -137 -25 -64 -4 -129 -9 -145
-11 -36 -4 -164 -9 -201 -7 -21 2 -27 6 -22 18 5 14 -1 15 -46 10 -29 -3 -132
-10 -228 -16 -96 -6 -215 -15 -265 -20 -49 -5 -133 -12 -185 -15 -52 -3 -112
-8 -132 -11 -31 -5 -38 -3 -38 10 0 11 9 16 31 16 26 0 30 3 26 19 -4 16 2 20
34 23 25 2 35 0 29 -6 -6 -6 -10 -14 -10 -18 0 -13 194 3 202 16 6 8 8 8 8 -1
0 -12 106 -7 125 7 6 4 71 8 145 9 140 1 154 3 207 27 37 17 101 30 91 19 -4
-4 -29 -14 -55 -21 l-48 -14 62 4 c34 1 68 7 75 13 12 9 151 26 349 42 52 5
101 9 109 10 9 0 21 -12 27 -29z m-720 -36 c-3 -3 -12 -4 -19 -1 -8 3 -5 6 6
6 11 1 17 -2 13 -5z m-1757 -37 c0 -2 -10 -12 -22 -23 l-23 -19 19 23 c18 21
26 27 26 19z m1090 -7 c0 -5 -5 -10 -11 -10 -5 0 -7 5 -4 10 3 6 8 10 11 10 2
0 4 -4 4 -10z m-1242 -20 c-7 -10 -14 -17 -17 -15 -4 4 18 35 25 35 2 0 -1 -9
-8 -20z m2015 13 c-7 -2 -21 -2 -30 0 -10 3 -4 5 12 5 17 0 24 -2 18 -5z
m-2185 -9 c13 -4 22 -14 22 -25 0 -26 -12 -24 -40 6 -24 26 -21 29 18 19z m47
-54 c-3 -5 -1 -10 6 -10 7 0 10 -2 7 -5 -8 -9 -38 6 -32 16 3 5 10 9 15 9 6 0
7 -4 4 -10z m360 -20 c-16 -16 -31 -27 -34 -24 -5 4 48 53 58 54 3 0 -8 -13
-24 -30z m2691 -13 c2 -14 -1 -15 -17 -6 -11 5 -17 15 -13 20 9 14 27 6 30
-14z m-714 -27 c6 0 9 -3 5 -6 -3 -3 -15 1 -27 9 -15 10 -18 16 -8 19 7 3 14
-1 16 -9 2 -7 8 -13 14 -13z m-464 -24 c12 -3 12 -4 -3 -3 -11 1 -20 9 -21 17
0 8 1 10 3 3 2 -6 12 -14 21 -17z m365 14 c14 -11 30 -20 35 -20 6 0 14 -5 18
-12 5 -7 0 -9 -14 -6 -14 4 -22 1 -25 -11 -3 -11 -5 -10 -6 5 -1 25 -28 39
-46 24 -8 -6 -18 -5 -31 5 -18 14 -18 14 9 15 16 0 26 4 22 10 -10 17 11 11
38 -10z m1132 10 c3 -5 1 -10 -4 -10 -6 0 -11 5 -11 10 0 6 2 10 4 10 3 0 8
-4 11 -10z m-2905 -25 c0 -8 -4 -15 -9 -15 -13 0 -22 16 -14 24 11 11 23 6 23
-9z m1442 -7 c-7 -7 -12 -8 -12 -2 0 14 12 26 19 19 2 -3 -1 -11 -7 -17z m796
-28 c-7 -11 -15 -20 -18 -20 -3 0 -6 9 -6 20 0 13 7 20 18 20 16 0 16 -3 6
-20z m-343 0 c-3 -5 -12 -7 -20 -3 -21 7 -19 13 6 13 11 0 18 -4 14 -10z m75
0 c0 -5 -4 -10 -10 -10 -5 0 -10 5 -10 10 0 6 5 10 10 10 6 0 10 -4 10 -10z
m-92 -35 c11 -16 218 -13 215 3 -2 8 8 12 30 11 23 -1 26 -3 9 -6 -12 -2 -20
-8 -17 -13 9 -14 -31 -21 -145 -24 -58 -2 -117 -7 -132 -11 -25 -6 -28 -4 -28
16 0 21 -1 21 -13 5 -11 -15 -17 -16 -40 -5 -29 13 -36 29 -12 29 8 0 15 -6
15 -12 1 -9 4 -8 9 2 10 17 98 21 109 5z m357 -5 c-3 -5 -20 -10 -36 -10 -18
0 -28 4 -24 10 3 6 20 10 36 10 18 0 28 -4 24 -10z m-3650 -450 c3 -5 2 -10
-4 -10 -5 0 -13 5 -16 10 -3 6 -2 10 4 10 5 0 13 -4 16 -10z m2480 -390 c3 -5
-1 -10 -10 -10 -9 0 -13 5 -10 10 3 6 8 10 10 10 2 0 7 -4 10 -10z m365 -290
c0 -5 -5 -10 -11 -10 -5 0 -7 5 -4 10 3 6 8 10 11 10 2 0 4 -4 4 -10z m230
-60 c0 -5 -4 -10 -10 -10 -5 0 -10 5 -10 10 0 6 5 10 10 10 6 0 10 -4 10 -10z
m-2960 -1030 c0 -5 -4 -10 -10 -10 -5 0 -10 5 -10 10 0 6 5 10 10 10 6 0 10
-4 10 -10z m567 -1082 c-3 -8 -6 -5 -6 6 -1 11 2 17 5 13 3 -3 4 -12 1 -19z"/>
<path d="M5595 5278 c-58 -174 -75 -248 -55 -248 5 0 10 7 10 15 0 8 4 23 9
33 26 53 61 212 47 212 -4 0 -9 -6 -11 -12z"/>
<path d="M5966 5095 c4 -8 7 -15 9 -15 2 0 5 7 9 15 3 9 0 15 -9 15 -9 0 -12
-6 -9 -15z"/>
<path d="M5980 5050 c6 -11 8 -25 5 -30 -3 -6 4 -10 16 -10 18 0 20 3 11 12
-7 7 -12 20 -12 30 0 10 -7 18 -15 18 -13 0 -14 -4 -5 -20z"/>
<path d="M5916 5036 c3 -9 11 -16 16 -16 13 0 5 23 -10 28 -7 2 -10 -2 -6 -12z"/>
<path d="M5945 4990 c10 -33 12 -35 27 -22 7 6 17 10 21 10 5 0 11 3 15 6 3 3
-6 6 -19 6 -14 0 -31 6 -38 13 -11 10 -12 7 -6 -13z"/>
<path d="M5976 4961 c-4 -7 -5 -15 -2 -18 9 -9 19 4 14 18 -4 11 -6 11 -12 0z"/>
<path d="M4800 4930 c0 -5 5 -10 10 -10 6 0 10 5 10 10 0 6 -4 10 -10 10 -5 0
-10 -4 -10 -10z"/>
<path d="M3320 4285 c-7 -9 -8 -15 -2 -15 5 0 12 7 16 15 3 8 4 15 2 15 -2 0
-9 -7 -16 -15z"/>
<path d="M3233 4253 c-23 -4 -28 -18 -17 -47 8 -21 24 -20 40 2 14 18 19 53 7
51 -5 -1 -18 -4 -30 -6z"/>
<path d="M5256 4525 c4 -8 8 -15 10 -15 2 0 4 7 4 15 0 8 -4 15 -10 15 -5 0
-7 -7 -4 -15z"/>
<path d="M4895 4470 c-3 -5 1 -10 10 -10 9 0 13 5 10 10 -3 6 -8 10 -10 10 -2
0 -7 -4 -10 -10z"/>
<path d="M4848 4453 c6 -2 18 -2 25 0 6 3 1 5 -13 5 -14 0 -19 -2 -12 -5z"/>
<path d="M5968 4253 c6 -2 18 -2 25 0 6 3 1 5 -13 5 -14 0 -19 -2 -12 -5z"/>
<path d="M5638 4223 c6 -2 18 -2 25 0 6 3 1 5 -13 5 -14 0 -19 -2 -12 -5z"/>
<path d="M4725 4170 c-3 -5 -1 -10 4 -10 6 0 11 5 11 10 0 6 -2 10 -4 10 -3 0
-8 -4 -11 -10z"/>
<path d="M5595 3930 c3 -5 8 -10 11 -10 2 0 4 5 4 10 0 6 -5 10 -11 10 -5 0
-7 -4 -4 -10z"/>
<path d="M4097 6605 c3 -55 7 -102 9 -104 8 -9 2 165 -6 184 -6 12 -7 -19 -3
-80z"/>
<path d="M4131 6600 c0 -75 4 -100 14 -100 9 0 12 17 9 68 -1 37 -3 82 -3 100
-1 17 -5 32 -11 32 -6 0 -10 -40 -9 -100z"/>
<path d="M3916 6682 c-2 -4 -1 -14 5 -22 7 -12 9 -10 9 8 0 23 -5 28 -14 14z"/>
<path d="M3955 6603 c10 -91 15 -92 15 -5 0 45 -4 72 -11 72 -7 0 -8 -22 -4
-67z"/>
<path d="M4170 6640 c0 -5 5 -10 10 -10 6 0 10 5 10 10 0 6 -4 10 -10 10 -5 0
-10 -4 -10 -10z"/>
<path d="M2825 6571 c0 -33 3 -63 8 -67 4 -4 7 23 7 59 0 37 -3 67 -7 67 -5 0
-8 -27 -8 -59z"/>
<path d="M3880 6609 c0 -5 5 -7 10 -4 6 3 10 8 10 11 0 2 -4 4 -10 4 -5 0 -10
-5 -10 -11z"/>
<path d="M3922 6590 c0 -19 2 -27 5 -17 2 9 2 25 0 35 -3 9 -5 1 -5 -18z"/>
<path d="M4182 6558 c-2 -49 1 -58 16 -58 11 0 13 3 5 8 -6 4 -13 30 -16 57
l-3 50 -2 -57z"/>
<path d="M3781 6564 c0 -11 3 -14 6 -6 3 7 2 16 -1 19 -3 4 -6 -2 -5 -13z"/>
<path d="M3846 6555 c4 -8 8 -15 10 -15 2 0 4 7 4 15 0 8 -4 15 -10 15 -5 0
-7 -7 -4 -15z"/>
<path d="M3430 6538 c0 -4 9 -8 20 -8 11 0 20 4 20 8 0 4 -9 8 -20 8 -11 0
-20 -4 -20 -8z"/>
<path d="M3490 6540 c0 -5 5 -10 11 -10 5 0 7 5 4 10 -3 6 -8 10 -11 10 -2 0
-4 -4 -4 -10z"/>
<path d="M3218 6533 c7 -3 16 -2 19 1 4 3 -2 6 -13 5 -11 0 -14 -3 -6 -6z"/>
<path d="M3310 6525 c-11 -13 -10 -14 4 -9 9 3 16 10 16 15 0 13 -6 11 -20 -6z"/>
<path d="M3360 6529 c0 -5 5 -7 10 -4 6 3 10 8 10 11 0 2 -4 4 -10 4 -5 0 -10
-5 -10 -11z"/>
<path d="M4130 6470 c-11 -7 -7 -10 18 -10 25 0 32 -4 32 -20 0 -27 16 -25 23
2 4 12 5 23 4 24 -11 9 -65 12 -77 4z"/>
<path d="M2837 6453 c-6 -5 -19 -8 -62 -12 -5 -1 -3 -6 5 -11 13 -8 12 -10 -2
-10 -10 0 -18 -7 -18 -16 0 -13 4 -13 31 3 29 17 68 53 57 53 -2 0 -8 -3 -11
-7z"/>
<path d="M2880 6398 c-40 -11 -70 -35 -70 -55 0 -18 39 1 59 29 7 11 19 17 27
14 7 -3 16 -1 20 5 9 16 2 17 -36 7z"/>
<path d="M4365 6373 c3 -40 4 -43 15 -43 11 0 13 30 4 54 -10 25 -21 18 -19
-11z"/>
<path d="M2787 6384 c-3 -4 -25 -9 -47 -11 -59 -7 -93 -17 -97 -30 -5 -15 52
-36 77 -28 13 4 30 8 39 9 9 2 22 15 29 30 13 26 12 43 -1 30z"/>
<path d="M2565 6340 c-3 -6 1 -7 9 -4 18 7 21 14 7 14 -6 0 -13 -4 -16 -10z"/>
<path d="M3050 6340 c-8 -5 -25 -10 -37 -10 -13 0 -23 -4 -23 -10 0 -5 -9 -10
-20 -10 -17 0 -20 -7 -20 -52 0 -38 -3 -49 -10 -38 -5 8 -10 32 -10 53 0 29
-4 37 -19 37 -10 0 -24 -7 -31 -15 -7 -8 -20 -14 -29 -14 -13 1 -13 2 2 6 21
6 23 23 2 23 -9 0 -19 -10 -24 -22 -10 -25 -71 -66 -71 -48 0 6 -20 1 -47 -13
-27 -14 -64 -32 -83 -40 -19 -9 -43 -25 -52 -36 -10 -12 -25 -21 -33 -21 -8 0
-15 -4 -15 -8 0 -5 -11 -14 -25 -20 -14 -6 -25 -17 -25 -24 0 -9 3 -9 12 0 15
15 42 16 32 1 -5 -8 3 -10 27 -5 19 4 69 10 112 13 61 4 77 8 73 19 -3 9 1 14
12 14 9 0 28 3 42 6 22 5 23 4 8 -8 -15 -13 -15 -15 0 -26 9 -6 13 -11 7 -10
-5 1 -21 -4 -35 -11 -13 -8 -48 -13 -76 -12 -49 1 -52 0 -47 -21 4 -21 3 -22
-10 -5 -16 19 -37 23 -37 7 0 -6 -6 -10 -12 -9 -11 2 -173 -11 -203 -16 -5 -1
-15 -3 -21 -3 -6 -1 -24 -13 -40 -27 -23 -19 -25 -25 -11 -25 9 0 17 4 17 9 0
4 26 16 58 24 53 15 62 15 125 -2 91 -24 101 -36 27 -36 -33 0 -67 -6 -77 -12
-15 -12 -15 -13 5 -13 12 0 31 -9 41 -19 11 -11 22 -17 25 -13 3 3 6 0 6 -7 0
-7 -11 -12 -27 -11 -53 4 -65 1 -59 -15 3 -8 1 -15 -3 -15 -5 0 -11 5 -13 11
-4 12 -38 1 -38 -12 0 -5 10 -9 23 -9 18 0 19 -2 7 -10 -8 -5 -30 -10 -48 -10
-21 0 -31 -4 -27 -11 9 -14 205 -9 205 5 0 6 21 30 47 53 l47 44 -37 -16 c-44
-18 -44 -18 -44 0 0 8 4 12 8 9 5 -3 30 6 56 19 54 27 120 40 128 26 4 -5 -2
-9 -12 -9 -19 -1 -63 -33 -63 -47 0 -4 -12 -14 -27 -21 -38 -17 -77 -51 -69
-59 3 -4 20 3 36 15 16 12 32 22 36 22 11 0 145 92 165 113 21 23 17 36 -6 17
-10 -8 -15 -9 -15 -1 0 6 3 11 8 11 30 0 158 153 145 173 -3 6 -2 7 4 4 5 -3
19 13 31 36 12 23 36 66 52 95 29 51 29 61 0 42z m-130 -44 c0 -3 -4 -8 -10
-11 -5 -3 -10 -1 -10 4 0 6 5 11 10 11 6 0 10 -2 10 -4z m-26 -81 c-9 -14 -19
-23 -22 -20 -5 4 26 45 35 45 2 0 -4 -11 -13 -25z m-217 -101 c-3 -3 -12 -4
-19 -1 -8 3 -5 6 6 6 11 1 17 -2 13 -5z m30 -70 c-3 -3 -12 -4 -19 -1 -8 3 -5
6 6 6 11 1 17 -2 13 -5z"/>
<path d="M2734 6285 c-10 -8 -14 -15 -8 -15 6 0 17 7 24 15 16 19 9 19 -16 0z"/>
<path d="M1955 6180 c-3 -5 -1 -10 4 -10 6 0 11 5 11 10 0 6 -2 10 -4 10 -3 0
-8 -4 -11 -10z"/>
<path d="M4455 6123 c14 -15 25 -33 25 -40 0 -7 8 -13 18 -12 10 0 12 3 4 6
-6 2 -10 9 -7 13 7 11 -38 60 -54 60 -7 0 0 -12 14 -27z"/>
<path d="M2445 6110 c-3 -5 -1 -10 4 -10 6 0 11 5 11 10 0 6 -2 10 -4 10 -3 0
-8 -4 -11 -10z"/>
<path d="M2220 6080 c-11 -8 -7 -9 15 -4 37 8 45 14 19 14 -10 0 -26 -5 -34
-10z"/>
<path d="M2110 6060 c-9 -6 -10 -10 -3 -10 6 0 15 5 18 10 8 12 4 12 -15 0z"/>
<path d="M1723 6025 c0 -22 2 -30 4 -17 2 12 2 30 0 40 -3 9 -5 -1 -4 -23z"/>
<path d="M1958 5959 c-10 -5 -18 -16 -18 -23 0 -16 27 -29 35 -16 3 4 -1 10
-7 13 -9 3 -7 10 7 21 22 17 10 21 -17 5z"/>
<path d="M2435 5960 c4 -6 11 -8 16 -5 14 9 11 15 -7 15 -8 0 -12 -5 -9 -10z"/>
<path d="M1801 5884 c0 -38 5 -78 10 -89 6 -13 7 10 3 65 -7 105 -14 117 -13
24z"/>
<path d="M2006 5941 c-4 -5 3 -7 14 -4 23 6 26 13 6 13 -8 0 -17 -4 -20 -9z"/>
<path d="M1518 5893 l-36 -38 4 -95 c3 -75 1 -87 -6 -60 -6 19 -10 56 -11 83
0 26 -4 47 -10 47 -5 0 -9 -13 -9 -30 0 -16 -4 -30 -9 -30 -6 0 -9 -8 -9 -17
1 -10 -2 -31 -6 -47 -6 -26 -5 -28 8 -17 10 9 16 10 16 3 0 -10 -60 -33 -68
-26 -4 3 -10 34 -11 58 -1 17 -4 16 -29 -10 -36 -38 -73 -95 -49 -75 15 12 17
10 17 -22 0 -20 5 -39 10 -42 22 -14 -4 -25 -59 -25 -71 0 -85 -13 -75 -67 4
-21 12 -41 18 -45 6 -4 43 -8 81 -8 84 0 333 -18 358 -26 15 -5 17 2 17 59 l0
64 -137 7 c-76 4 -148 10 -160 13 -32 7 -28 21 5 17 81 -11 76 -14 83 46 3 32
6 42 7 23 1 -17 5 -38 8 -47 11 -29 20 -16 16 24 -3 25 0 40 7 40 7 0 11 -20
11 -49 l0 -49 41 -7 c22 -4 42 -5 44 -3 4 4 -13 267 -23 336 l-7 53 -37 -38z
m-1 -65 c-3 -8 -6 -5 -6 6 -1 11 2 17 5 13 3 -3 4 -12 1 -19z m10 -145 c-3
-10 -5 -2 -5 17 0 19 2 27 5 18 2 -10 2 -26 0 -35z"/>
<path d="M2117 5919 c-10 -6 -24 -8 -32 -5 -17 6 -63 -28 -49 -37 11 -6 90 28
99 43 8 12 5 12 -18 -1z"/>
<path d="M2418 5923 c7 -3 16 -2 19 1 4 3 -2 6 -13 5 -11 0 -14 -3 -6 -6z"/>
<path d="M1772 5900 c0 -14 2 -19 5 -12 2 6 2 18 0 25 -3 6 -5 1 -5 -13z"/>
<path d="M1730 5840 c0 -35 3 -61 6 -57 7 7 7 107 0 115 -3 3 -6 -23 -6 -58z"/>
<path d="M1966 5885 c-10 -8 -23 -12 -29 -8 -6 3 -7 1 -4 -5 8 -11 44 -5 53
10 10 16 0 17 -20 3z"/>
<path d="M1692 5850 c0 -19 2 -27 5 -17 2 9 2 25 0 35 -3 9 -5 1 -5 -18z"/>
<path d="M1889 5823 c-13 -16 -12 -17 4 -4 9 7 17 15 17 17 0 8 -8 3 -21 -13z"/>
<path d="M2724 5815 c-10 -8 -14 -15 -8 -15 6 0 17 7 24 15 16 19 9 19 -16 0z"/>
<path d="M2295 5800 c-3 -5 3 -10 14 -10 11 0 23 5 26 10 3 6 -3 10 -14 10
-11 0 -23 -4 -26 -10z"/>
<path d="M2900 5770 c-13 -9 -13 -10 0 -10 9 0 -2 -15 -25 -35 -22 -19 -35
-34 -30 -35 21 0 77 55 74 73 -3 12 -8 14 -19 7z"/>
<path d="M2120 5754 c-24 -13 -24 -14 -3 -14 12 0 25 5 28 10 3 6 13 10 22 10
12 0 13 -3 4 -13 -6 -8 -8 -17 -4 -20 3 -4 2 -7 -3 -7 -6 0 -19 -7 -30 -16
-18 -15 -18 -15 9 -9 15 3 27 3 27 1 0 -3 -12 -12 -27 -21 -27 -15 -27 -15 27
-9 30 3 57 9 60 13 5 6 79 31 94 31 3 0 6 -6 6 -14 0 -7 10 -17 23 -21 13 -4
17 -8 10 -12 -13 -4 -19 -33 -8 -33 18 0 53 34 48 46 -3 9 2 14 17 14 14 0 20
-5 17 -13 -3 -8 1 -14 9 -14 9 0 12 7 8 19 -3 10 -1 18 5 18 6 0 11 -5 11 -11
0 -19 18 1 29 32 10 30 10 31 -15 26 -14 -2 -42 -1 -62 4 -21 4 -55 4 -77 -1
-22 -5 -67 -11 -100 -14 -57 -4 -58 -3 -39 13 20 16 19 16 -20 17 -23 1 -52
-5 -66 -12z m245 -34 c19 -8 19 -9 -2 -9 -12 -1 -25 4 -28 9 -7 12 2 12 30 0z"/>
<path d="M2535 5742 c-19 -10 -25 -17 -16 -20 7 -2 23 5 34 17 25 24 23 25
-18 3z"/>
<path d="M3131 5732 c-32 -11 -97 -75 -81 -80 22 -8 71 21 86 50 17 33 16 38
-5 30z"/>
<path d="M1670 5719 c0 -5 5 -7 10 -4 6 3 10 8 10 11 0 2 -4 4 -10 4 -5 0 -10
-5 -10 -11z"/>
<path d="M1678 5693 c-2 -5 -1 -26 3 -48 l6 -40 2 48 c1 44 -3 57 -11 40z"/>
<path d="M1880 5685 c-11 -13 -10 -14 4 -9 9 3 16 10 16 15 0 13 -6 11 -20 -6z"/>
<path d="M2738 5689 c-10 -5 -18 -19 -18 -29 0 -19 1 -19 35 1 19 12 38 25 41
30 7 12 -37 11 -58 -2z"/>
<path d="M3206 5673 c-6 -14 -5 -15 5 -6 7 7 10 15 7 18 -3 3 -9 -2 -12 -12z"/>
<path d="M3016 5673 c-4 -5 -11 -8 -14 -8 -4 -1 -20 -8 -37 -18 l-30 -16 33 3
c32 3 72 30 61 41 -3 3 -9 2 -13 -2z"/>
<path d="M2618 5653 c-10 -2 -18 -8 -18 -13 0 -10 38 -1 46 11 5 9 1 10 -28 2z"/>
<path d="M3206 5641 c-4 -7 -5 -15 -2 -18 9 -9 19 4 14 18 -4 11 -6 11 -12 0z"/>
<path d="M3041 5617 c1 -17 2 -18 6 -4 2 9 8 15 13 12 5 -3 11 -2 14 3 2 4 -4
9 -15 9 -14 1 -19 -4 -18 -20z"/>
<path d="M2081 5619 c-13 -5 -22 -11 -20 -14 8 -7 49 7 49 16 0 5 -1 9 -2 8
-2 0 -14 -5 -27 -10z"/>
<path d="M2982 5606 c-18 -6 -30 -14 -27 -18 4 -3 18 0 32 7 15 8 30 12 35 9
4 -3 8 0 8 5 0 13 -6 13 -48 -3z"/>
<path d="M1245 5599 c-10 -15 3 -25 16 -12 7 7 7 13 1 17 -6 3 -14 1 -17 -5z"/>
<path d="M2483 5573 c-15 -21 -32 -41 -38 -45 -6 -5 -6 -8 1 -8 10 0 47 42 68
78 16 26 -4 10 -31 -25z"/>
<path d="M2865 5600 c-3 -5 -1 -10 4 -10 6 0 11 5 11 10 0 6 -2 10 -4 10 -3 0
-8 -4 -11 -10z"/>
<path d="M1800 5573 c-6 -16 -14 -35 -19 -43 -13 -24 -25 -87 -13 -75 24 26
92 118 92 126 0 5 -12 4 -26 -2 -24 -8 -25 -8 -14 6 9 10 9 15 1 15 -6 0 -16
-12 -21 -27z"/>
<path d="M2350 5572 c-8 -4 -15 -17 -16 -29 -1 -30 2 -29 21 7 9 17 14 30 13
29 -2 0 -10 -3 -18 -7z"/>
<path d="M2860 5568 c-19 -5 -39 -14 -44 -19 -14 -12 6 -12 41 2 15 6 36 12
47 15 10 2 21 6 24 9 8 8 -29 4 -68 -7z"/>
<path d="M3020 5555 c-7 -9 -11 -17 -9 -20 3 -2 10 5 17 15 14 24 10 26 -8 5z"/>
<path d="M1615 5550 c3 -5 8 -10 11 -10 2 0 4 5 4 10 0 6 -5 10 -11 10 -5 0
-7 -4 -4 -10z"/>
<path d="M2522 5548 c-14 -14 -16 -48 -3 -48 9 0 25 49 18 56 -2 2 -9 -2 -15
-8z"/>
<path d="M2491 5514 c0 -11 3 -14 6 -6 3 7 2 16 -1 19 -3 4 -6 -2 -5 -13z"/>
<path d="M3124 5506 c-3 -14 -9 -24 -14 -21 -9 6 -30 -39 -30 -65 0 -18 -17
-36 -26 -28 -2 3 3 24 11 48 8 24 13 46 10 49 -3 3 -8 -4 -11 -16 -3 -12 -17
-24 -30 -27 -29 -8 -53 -46 -28 -46 29 0 6 -52 -47 -103 -48 -46 -62 -66 -36
-51 17 11 64 54 95 87 14 15 31 26 38 23 7 -3 15 2 18 10 3 9 10 13 15 10 16
-10 29 18 39 84 10 67 8 93 -4 46z"/>
<path d="M2874 5500 c-47 -20 -72 -47 -34 -35 19 6 22 4 17 -9 -4 -9 14 0 38
21 25 20 45 39 45 40 0 7 -28 0 -66 -17z"/>
<path d="M2974 5510 c-21 -8 -42 -30 -29 -30 10 0 65 30 65 35 0 7 -11 5 -36
-5z"/>
<path d="M2552 5498 c-13 -16 -37 -107 -29 -114 2 -3 16 5 29 18 23 23 28 68
6 68 -6 0 -6 6 2 15 7 9 11 18 8 20 -3 3 -10 0 -16 -7z"/>
<path d="M2351 5476 c-16 -19 -11 -29 8 -17 7 5 12 14 9 21 -3 9 -8 7 -17 -4z"/>
<path d="M2473 5477 c-3 -5 -21 -15 -39 -23 -19 -8 -34 -19 -34 -25 0 -6 -5
-9 -12 -7 -19 7 -105 -69 -92 -81 4 -3 9 0 11 7 3 6 12 12 20 12 10 0 13 -6 9
-16 -3 -9 -6 -17 -6 -20 0 -2 -7 -1 -15 2 -8 4 -15 1 -15 -6 0 -7 8 -10 20 -7
10 3 21 2 23 -2 2 -3 3 -1 1 5 -2 11 35 38 42 31 3 -3 -2 -12 -11 -20 -19 -19
-19 -37 -1 -37 8 0 16 -5 18 -12 6 -17 28 0 28 23 0 21 20 27 21 7 0 -7 4 -3
10 10 5 13 13 20 19 17 16 -10 32 46 27 92 -3 32 -1 40 9 36 9 -3 12 0 9 9 -7
16 -33 20 -42 5z m17 -77 c0 -11 -2 -20 -4 -20 -2 0 -6 9 -9 20 -3 11 -1 20 4
20 5 0 9 -9 9 -20z"/>
<path d="M1975 5470 c6 -10 4 -12 -9 -7 -10 4 -27 0 -39 -8 -18 -13 -19 -15
-4 -15 9 0 17 4 17 9 0 5 8 7 19 4 22 -6 37 12 20 23 -8 5 -9 3 -4 -6z"/>
<path d="M2687 5459 c-9 -5 -21 -8 -26 -5 -5 4 -7 -3 -4 -15 4 -12 11 -18 20
-15 8 3 19 6 24 6 6 0 7 5 4 10 -5 9 15 15 38 11 4 0 7 4 7 9 0 13 -40 12 -63
-1z"/>
<path d="M3161 5434 c0 -11 3 -14 6 -6 3 7 2 16 -1 19 -3 4 -6 -2 -5 -13z"/>
<path d="M2690 5409 c0 -5 5 -7 10 -4 6 3 10 8 10 11 0 2 -4 4 -10 4 -5 0 -10
-5 -10 -11z"/>
<path d="M1920 5399 c0 -5 5 -7 10 -4 6 3 10 8 10 11 0 2 -4 4 -10 4 -5 0 -10
-5 -10 -11z"/>
<path d="M3388 5405 c-3 -5 -9 -32 -12 -60 l-6 -50 16 34 c14 31 17 98 2 76z"/>
<path d="M2610 5389 c0 -5 5 -7 10 -4 6 3 10 8 10 11 0 2 -4 4 -10 4 -5 0 -10
-5 -10 -11z"/>
<path d="M2552 5372 c-15 -11 -25 -32 -28 -57 -6 -48 -14 -59 -14 -20 0 28 -1
28 -17 12 -16 -16 -16 -19 -3 -27 13 -8 12 -10 -3 -10 -19 0 -38 -37 -30 -57
3 -7 14 -13 24 -13 11 0 19 -7 19 -17 0 -12 7 -8 23 14 24 35 37 42 37 18 0
-8 7 -15 16 -15 8 0 12 5 9 10 -3 6 -2 10 3 10 6 0 13 7 16 16 5 13 1 15 -21
11 -42 -8 -55 1 -41 26 7 12 12 28 13 35 0 7 10 21 23 30 15 12 21 24 16 35
-8 21 -13 21 -42 -1z"/>
<path d="M1886 5364 c-5 -14 -4 -15 9 -4 17 14 19 20 6 20 -5 0 -12 -7 -15
-16z"/>
<path d="M3586 5304 c-3 -9 -6 -28 -6 -43 0 -20 5 -27 21 -28 17 -2 20 2 15
20 -3 12 -6 32 -6 45 0 25 -15 30 -24 6z"/>
<path d="M1925 5284 c-38 -19 -53 -34 -36 -34 8 0 10 -8 6 -22 -5 -22 -5 -22
7 -4 7 10 23 30 36 44 33 37 31 39 -13 16z"/>
<path d="M2035 5273 c-31 -7 -40 -21 -11 -16 15 3 29 9 32 14 3 5 4 8 2 8 -2
-1 -12 -3 -23 -6z"/>
<path d="M2220 5240 c-23 -45 -24 -50 -10 -50 6 0 10 7 10 15 0 8 7 15 16 15
12 0 15 -6 10 -25 -4 -14 -4 -25 -2 -25 10 0 26 78 20 94 -10 26 -22 19 -44
-24z"/>
<path d="M2330 5276 c0 -2 9 -6 20 -9 11 -3 20 -1 20 4 0 5 -9 9 -20 9 -11 0
-20 -2 -20 -4z"/>
<path d="M3455 5270 c3 -5 8 -10 11 -10 2 0 4 5 4 10 0 6 -5 10 -11 10 -5 0
-7 -4 -4 -10z"/>
<path d="M2113 5263 c-13 -2 -23 -9 -23 -15 0 -6 10 -8 23 -4 12 3 25 6 30 6
4 0 7 5 7 10 0 6 -3 9 -7 9 -5 -1 -18 -4 -30 -6z"/>
<path d="M2025 5240 c-3 -5 -2 -17 3 -26 8 -14 10 -12 10 9 0 29 -3 33 -13 17z"/>
<path d="M2316 5233 c-9 -10 -7 -55 3 -49 12 8 21 45 11 51 -4 2 -10 2 -14 -2z"/>
<path d="M2006 5202 c-2 -4 -1 -14 5 -22 7 -12 9 -10 9 8 0 23 -5 28 -14 14z"/>
<path d="M2601 5184 c0 -11 3 -14 6 -6 3 7 2 16 -1 19 -3 4 -6 -2 -5 -13z"/>
<path d="M2567 5173 c-4 -3 -7 -22 -7 -42 1 -39 12 -28 24 22 6 25 -2 35 -17
20z"/>
<path d="M1548 5143 c6 -2 18 -2 25 0 6 3 1 5 -13 5 -14 0 -19 -2 -12 -5z"/>
<path d="M1506 5132 c-7 -12 9 -250 18 -259 7 -7 -1 178 -9 204 -2 7 0 15 5
18 13 8 13 45 1 45 -6 0 -12 -4 -15 -8z"/>
<path d="M1286 5115 c-11 -8 -15 -15 -10 -15 6 0 19 7 30 15 10 8 15 14 9 14
-5 0 -19 -6 -29 -14z"/>
<path d="M1353 5064 c3 -27 9 -91 13 -141 5 -69 10 -93 20 -93 17 0 18 26 2
34 -9 4 -10 8 -2 11 21 10 -3 226 -25 233 -11 4 -13 -5 -8 -44z"/>
<path d="M2543 5077 c3 -10 2 -17 -3 -17 -6 0 -10 5 -10 10 0 6 -7 10 -15 10
-8 0 -15 -4 -15 -10 0 -5 -6 -10 -14 -10 -8 0 -21 -7 -30 -15 -10 -10 -17 -12
-21 -4 -5 7 -13 4 -26 -7 -10 -9 -19 -13 -20 -8 0 5 -7 -4 -15 -21 l-15 -30 5
36 c3 25 0 36 -9 36 -9 0 -11 -11 -8 -36 3 -20 6 -46 6 -58 1 -14 6 -18 13
-12 7 6 15 0 22 -17 17 -35 15 -40 -7 -20 -10 9 -25 14 -35 10 -11 -4 -16 -1
-16 10 0 9 -4 16 -10 16 -28 0 4 -62 35 -67 14 -3 28 -77 15 -81 -5 -2 -10
-11 -11 -20 0 -10 -5 -5 -11 11 -5 15 -13 25 -17 23 -4 -3 -7 11 -7 29 0 44
-12 55 -30 30 -14 -19 -13 -102 2 -154 5 -17 4 -22 -4 -17 -7 4 -12 14 -12 23
0 9 -3 14 -6 11 -5 -6 9 -67 23 -105 4 -11 2 -14 -5 -9 -9 5 -9 1 -2 -18 6
-16 6 -35 0 -48 -8 -22 -15 -11 -11 19 1 6 -3 14 -8 18 -6 3 -7 13 -4 22 5 11
3 14 -6 9 -7 -5 -10 -18 -7 -31 4 -14 1 -25 -6 -27 -7 -3 -5 -13 7 -31 9 -15
21 -24 26 -21 5 3 9 -2 9 -10 0 -19 16 -21 23 -3 3 9 9 9 25 0 13 -8 23 -9 27
-3 3 6 18 10 32 10 21 0 24 2 13 15 -7 8 -8 15 -3 15 5 0 7 16 5 35 -2 19 -8
32 -13 29 -16 -9 -10 6 11 28 14 16 17 24 8 29 -8 5 -8 13 4 31 20 32 30 60
18 53 -6 -3 -10 -2 -10 4 0 27 24 64 69 110 28 27 51 54 51 59 0 5 7 15 15 22
8 6 13 22 12 33 -1 14 3 21 12 19 10 -2 12 4 7 20 -3 13 -6 29 -6 36 0 6 -7
12 -15 12 -8 0 -15 6 -15 14 0 8 -5 18 -12 22 -8 5 -9 2 -5 -9z m-53 -63 c0
-8 -5 -12 -10 -9 -6 4 -8 11 -5 16 9 14 15 11 15 -7z m-11 -103 c14 -12 14
-13 -6 -8 -13 3 -23 0 -23 -6 0 -6 -2 -8 -5 -5 -4 3 -3 19 1 34 5 18 9 23 12
14 2 -8 12 -21 21 -29z"/>
<path d="M3670 5066 c0 -9 5 -16 10 -16 6 0 10 4 10 9 0 6 -4 13 -10 16 -5 3
-10 -1 -10 -9z"/>
<path d="M1808 5064 c-3 -5 1 -22 8 -39 10 -22 13 -25 13 -10 -1 28 -14 61
-21 49z"/>
<path d="M3683 5011 c1 -16 5 -27 10 -24 10 6 9 41 -3 48 -5 3 -8 -7 -7 -24z"/>
<path d="M1977 4996 c-3 -8 -2 -27 3 -43 8 -26 8 -25 9 15 1 43 -3 52 -12 28z"/>
<path d="M2041 4970 c-8 -14 -23 -40 -33 -58 -10 -18 -18 -40 -18 -50 -1 -15
-2 -16 -13 -1 -10 13 -12 6 -12 -42 0 -32 4 -55 9 -51 6 3 6 -3 1 -14 -11 -26
-15 -95 -5 -89 4 2 5 -15 3 -39 -3 -26 -1 -46 6 -50 19 -12 12 -28 -9 -21 -16
5 -20 2 -20 -15 0 -18 4 -20 18 -14 9 5 44 9 77 9 49 0 67 -5 100 -27 22 -16
44 -28 49 -28 10 0 -1 96 -15 122 -5 10 -14 18 -20 18 -6 0 -6 -7 1 -19 14
-27 13 -34 -5 -27 -8 3 -15 2 -15 -2 0 -4 -9 -8 -20 -8 -11 0 -20 6 -20 13 0
6 -6 16 -14 20 -7 4 -16 15 -19 23 -3 9 -6 6 -6 -10 -1 -25 -1 -25 -21 6 -16
25 -21 51 -23 132 -1 70 2 105 11 113 14 15 14 10 13 -81 -1 -40 1 -51 9 -40
5 8 10 25 10 37 0 12 5 34 11 50 l12 28 7 -25 c7 -22 8 -22 11 -5 6 49 5 81
-2 95 -7 13 -8 13 -9 -1 0 -9 -7 -19 -14 -22 -12 -5 -16 5 -18 46 -3 50 -3 51
-17 27z m-42 -372 c1 -5 -3 -8 -9 -8 -5 0 -10 12 -9 28 0 24 1 25 9 7 5 -11 9
-23 9 -27z"/>
<path d="M3710 4970 c0 -11 4 -20 9 -20 5 0 7 9 4 20 -3 11 -7 20 -9 20 -2 0
-4 -9 -4 -20z"/>
<path d="M2184 4877 c3 -10 6 -26 6 -35 0 -12 3 -13 11 -5 8 8 7 17 -6 35 -12
16 -16 18 -11 5z"/>
<path d="M3877 4865 c-4 -8 -2 -17 3 -20 6 -4 10 3 10 14 0 25 -6 27 -13 6z"/>
<path d="M786 4845 c-7 -19 3 -47 15 -39 5 3 9 14 9 24 0 24 -16 34 -24 15z"/>
<path d="M1521 4844 c0 -11 3 -14 6 -6 3 7 2 16 -1 19 -3 4 -6 -2 -5 -13z"/>
<path d="M2247 4805 c23 -32 36 -32 21 0 -6 14 -17 25 -25 25 -11 0 -10 -6 4
-25z"/>
<path d="M1520 4810 c0 -5 5 -10 10 -10 6 0 10 5 10 10 0 6 -4 10 -10 10 -5 0
-10 -4 -10 -10z"/>
<path d="M1372 4801 c-17 -10 -17 -21 -3 -31 7 -4 14 -55 18 -123 3 -64 6
-117 7 -118 1 0 27 -3 60 -5 l59 -5 -7 32 c-3 17 -6 49 -6 70 0 27 -4 39 -14
39 -9 0 -16 17 -21 50 -7 47 -22 70 -22 33 1 -10 -1 -34 -2 -53 -3 -33 -3 -33
-11 -10 -4 14 -8 46 -9 71 -1 33 -6 49 -17 53 -19 7 -16 8 -32 -3z"/>
<path d="M1434 4795 c-9 -21 -2 -26 13 -10 8 9 9 16 3 20 -6 3 -13 -1 -16 -10z"/>
<path d="M801 4774 c0 -11 3 -14 6 -6 3 7 2 16 -1 19 -3 4 -6 -2 -5 -13z"/>
<path d="M1530 4756 c0 -19 -4 -38 -10 -41 -15 -9 -12 -25 5 -25 11 0 15 12
15 50 0 28 -2 50 -5 50 -3 0 -5 -15 -5 -34z"/>
<path d="M3500 4771 c0 -5 5 -13 10 -16 6 -3 10 -2 10 4 0 5 -4 13 -10 16 -5
3 -10 2 -10 -4z"/>
<path d="M1357 4754 c-4 -4 -7 -14 -7 -23 0 -11 3 -12 11 -4 6 6 10 16 7 23
-2 6 -7 8 -11 4z"/>
<path d="M830 4713 c1 -21 9 -56 20 -78 l19 -40 1 48 c0 26 4 47 9 47 10 0 21
-73 21 -139 0 -35 3 -43 11 -31 8 11 9 8 4 -13 -4 -19 -2 -26 5 -22 13 8 13
55 0 55 -5 0 -10 15 -10 34 0 64 -13 157 -20 145 -9 -14 -30 -3 -30 17 0 8 -7
14 -15 14 -11 0 -15 -11 -15 -37z"/>
<path d="M2051 4704 c0 -11 3 -14 6 -6 3 7 2 16 -1 19 -3 4 -6 -2 -5 -13z"/>
<path d="M771 4694 c0 -11 3 -14 6 -6 3 7 2 16 -1 19 -3 4 -6 -2 -5 -13z"/>
<path d="M1337 4664 c-4 -21 -3 -41 2 -44 4 -3 10 -12 13 -20 3 -8 6 6 6 31 0
61 -13 82 -21 33z"/>
<path d="M3351 4674 c0 -11 3 -14 6 -6 3 7 2 16 -1 19 -3 4 -6 -2 -5 -13z"/>
<path d="M1523 4673 c-17 -6 -16 -23 1 -23 8 0 14 -10 14 -25 0 -14 -4 -25 -8
-25 -4 0 -6 -16 -5 -35 4 -62 20 -38 23 34 3 69 -2 82 -25 74z"/>
<path d="M1746 4619 c1 -28 8 -56 14 -63 10 -9 11 0 6 38 -3 27 -6 55 -6 62 0
8 -4 14 -8 14 -5 0 -8 -23 -6 -51z"/>
<path d="M1068 4625 c4 -37 24 -43 30 -10 3 10 0 15 -7 11 -7 -4 -11 1 -11 13
0 12 -4 21 -8 21 -4 0 -6 -16 -4 -35z"/>
<path d="M1041 4599 c1 -24 5 -55 10 -69 5 -17 7 -4 3 39 -5 75 -14 96 -13 30z"/>
<path d="M1132 4615 c0 -16 2 -22 5 -12 2 9 2 23 0 30 -3 6 -5 -1 -5 -18z"/>
<path d="M1580 4602 c0 -22 4 -43 9 -46 5 -4 7 12 4 36 -8 57 -13 61 -13 10z"/>
<path d="M3405 4628 c-2 -7 -8 -31 -14 -53 -9 -36 -9 -38 4 -21 8 11 15 27 15
36 0 9 5 21 11 27 8 8 8 13 0 18 -6 3 -13 0 -16 -7z"/>
<path d="M702 4610 c0 -14 2 -19 5 -12 2 6 2 18 0 25 -3 6 -5 1 -5 -13z"/>
<path d="M1152 4610 c0 -14 2 -19 5 -12 2 6 2 18 0 25 -3 6 -5 1 -5 -13z"/>
<path d="M796 4607 c3 -10 9 -15 12 -12 3 3 0 11 -7 18 -10 9 -11 8 -5 -6z"/>
<path d="M831 4588 c-1 -21 4 -38 9 -38 11 0 11 14 0 50 -7 22 -8 21 -9 -12z"/>
<path d="M763 4583 c-15 -6 -17 -43 -3 -43 6 0 10 7 10 16 0 8 4 12 10 9 6 -3
7 1 4 9 -3 9 -7 16 -8 15 0 0 -7 -3 -13 -6z"/>
<path d="M2455 4560 c3 -5 8 -10 11 -10 2 0 4 5 4 10 0 6 -5 10 -11 10 -5 0
-7 -4 -4 -10z"/>
<path d="M2486 4557 c3 -10 9 -15 12 -12 3 3 0 11 -7 18 -10 9 -11 8 -5 -6z"/>
<path d="M681 4544 c0 -11 3 -14 6 -6 3 7 2 16 -1 19 -3 4 -6 -2 -5 -13z"/>
<path d="M720 4545 c-11 -13 -10 -14 4 -9 9 3 16 10 16 15 0 13 -6 11 -20 -6z"/>
<path d="M1081 4544 c0 -11 3 -14 6 -6 3 7 2 16 -1 19 -3 4 -6 -2 -5 -13z"/>
<path d="M1102 4535 c0 -16 2 -22 5 -12 2 9 2 23 0 30 -3 6 -5 -1 -5 -18z"/>
<path d="M2217 4553 c-11 -10 -8 -53 3 -53 6 0 10 14 10 30 0 31 -2 35 -13 23z"/>
<path d="M950 4520 c0 -16 4 -30 8 -30 5 0 7 14 4 30 -2 17 -6 30 -8 30 -2 0
-4 -13 -4 -30z"/>
<path d="M772 4528 c-6 -6 -12 -23 -12 -37 -1 -26 -1 -26 -15 4 -13 30 -21 13
-9 -19 9 -24 44 -20 44 4 0 21 14 27 24 11 4 -5 0 -12 -6 -14 -7 -3 -3 -6 9
-6 19 -1 20 1 10 28 -6 17 -14 28 -18 25 -4 -2 -9 1 -11 6 -2 7 -8 6 -16 -2z"/>
<path d="M1605 4519 c-22 -5 -25 -7 -10 -10 11 -1 -57 -5 -152 -8 -94 -3 -174
-9 -178 -13 -4 -4 -4 -29 0 -57 l7 -50 230 -3 c126 -2 231 -1 232 2 1 3 0 31
-2 63 -4 52 -6 58 -25 56 -39 -3 -49 1 -44 14 5 14 -12 16 -58 6z"/>
<path d="M680 4500 c-2 -14 -2 -28 -1 -32 0 -5 -6 -8 -14 -8 -8 0 -15 -4 -15
-9 0 -4 11 -6 25 -3 26 5 30 21 15 57 -8 18 -9 18 -10 -5z"/>
<path d="M710 4485 c0 -19 4 -35 8 -35 4 0 6 16 4 35 -2 19 -6 35 -8 35 -2 0
-4 -16 -4 -35z"/>
<path d="M1201 4453 c0 -30 3 -53 9 -53 11 0 11 31 0 75 -7 26 -8 22 -9 -22z"/>
<path d="M1051 4455 c0 -22 4 -49 9 -60 7 -16 9 -11 9 20 0 22 -4 49 -9 60 -7
16 -9 11 -9 -20z"/>
<path d="M2477 4448 c-4 -29 5 -47 23 -48 4 0 5 40 1 70 -3 23 -19 8 -24 -22z"/>
<path d="M870 4438 c1 -7 7 -26 16 -43 12 -26 14 -27 9 -5 -2 14 -5 33 -5 43
0 9 -4 17 -10 17 -5 0 -10 -6 -10 -12z"/>
<path d="M719 4436 c-8 -9 3 -96 13 -96 5 0 7 18 3 44 -6 38 -4 45 12 49 16 4
15 5 -3 6 -11 0 -23 -1 -25 -3z"/>
<path d="M1980 4418 c-20 -14 -40 -38 -47 -58 -25 -72 -8 -269 26 -303 15 -15
14 -5 -5 60 -17 60 -15 101 12 180 17 50 68 113 92 113 7 0 12 6 10 13 -8 21
-52 19 -88 -5z"/>
<path d="M678 4423 c7 -3 16 -2 19 1 4 3 -2 6 -13 5 -11 0 -14 -3 -6 -6z"/>
<path d="M910 4388 c0 -9 5 -20 10 -23 13 -8 13 5 0 25 -8 13 -10 13 -10 -2z"/>
<path d="M2236 4191 c-7 -11 1 -67 13 -90 6 -11 9 -26 8 -33 -2 -7 -2 -10 0
-5 3 4 10 4 15 0 7 -4 9 1 6 15 -4 12 0 23 8 26 14 5 12 21 -8 63 -12 24 -34
37 -42 24z"/>
<path d="M822 4181 c-11 -7 -11 -9 2 -14 10 -4 16 -19 17 -39 1 -18 5 -46 9
-63 6 -22 8 -9 9 48 1 78 -5 89 -37 68z"/>
<path d="M2100 4015 c0 -8 4 -15 9 -15 5 0 11 -9 14 -20 3 -13 0 -20 -9 -20
-8 0 -14 -4 -14 -9 0 -11 25 -21 52 -21 14 0 18 -5 14 -15 -3 -8 3 -19 14 -25
24 -13 30 -13 30 0 0 6 -10 10 -22 10 -20 1 -21 2 -6 10 9 6 15 18 13 28 -2 9
-4 20 -4 23 -1 4 -14 21 -30 38 -31 33 -61 41 -61 16z"/>
<path d="M863 3970 c0 -30 2 -43 4 -27 2 15 2 39 0 55 -2 15 -4 2 -4 -28z"/>
<path d="M6306 3994 c-26 -19 -17 -26 13 -10 13 7 20 16 15 19 -5 3 -18 -1
-28 -9z"/>
<path d="M6260 3990 c0 -5 5 -10 11 -10 5 0 7 5 4 10 -3 6 -8 10 -11 10 -2 0
-4 -4 -4 -10z"/>
<path d="M1697 3873 c-6 -34 2 -83 14 -83 11 0 11 81 0 98 -6 10 -10 6 -14
-15z"/>
<path d="M1199 3883 c-1 -4 -1 -12 0 -17 1 -4 -10 -5 -24 -2 -25 6 -33 -2 -16
-19 5 -6 11 -23 13 -39 2 -16 9 -31 16 -34 15 -5 16 34 1 44 -6 3 -7 9 -3 13
18 13 34 50 24 56 -6 3 -11 3 -11 -2z"/>
<path d="M5258 3873 c-26 -3 -38 -9 -38 -20 0 -10 6 -13 16 -9 9 3 29 6 45 6
19 0 29 5 29 15 0 8 -3 14 -7 13 -5 -1 -25 -3 -45 -5z"/>
<path d="M872 3840 c0 -14 2 -19 5 -12 2 6 2 18 0 25 -3 6 -5 1 -5 -13z"/>
<path d="M4920 3830 c0 -5 5 -10 11 -10 5 0 7 5 4 10 -3 6 -8 10 -11 10 -2 0
-4 -4 -4 -10z"/>
<path d="M1778 3803 c6 -2 18 -2 25 0 6 3 1 5 -13 5 -14 0 -19 -2 -12 -5z"/>
<path d="M2011 3752 c-7 -13 -6 -23 1 -30 15 -15 62 -16 53 -2 -7 12 7 13 21
3 5 -5 -3 4 -18 20 -33 32 -44 34 -57 9z"/>
<path d="M830 3713 c0 -7 -9 -21 -21 -32 -12 -11 -16 -21 -10 -25 5 -4 14 2
20 11 11 21 21 14 24 -15 3 -39 27 -11 27 32 0 30 -3 37 -10 26 -9 -13 -11
-13 -20 0 -6 9 -10 10 -10 3z"/>
<path d="M2510 3635 c0 -8 5 -15 10 -15 6 0 10 7 10 15 0 8 -4 15 -10 15 -5 0
-10 -7 -10 -15z"/>
<path d="M830 3586 c0 -19 4 -22 25 -18 14 2 25 9 25 14 0 6 -7 8 -14 5 -10
-4 -13 -1 -9 9 3 8 -1 14 -11 14 -10 0 -16 -9 -16 -24z"/>
<path d="M740 3580 c-12 -7 -12 -12 -1 -34 8 -14 18 -23 22 -20 7 4 40 -10 78
-34 3 -1 0 -7 -7 -14 -8 -8 -8 -17 -1 -30 12 -22 6 -34 -10 -23 -6 3 -9 11 -6
16 4 5 -1 9 -10 9 -9 0 -13 5 -10 10 3 6 -4 10 -17 10 l-23 0 26 -23 c15 -12
29 -30 33 -40 3 -10 10 -15 16 -12 5 3 10 2 10 -3 0 -6 11 -9 25 -8 23 1 25 5
25 46 0 68 -11 120 -25 120 -7 0 -16 -7 -19 -16 -5 -14 -10 -13 -29 10 -12 14
-28 26 -35 26 -7 0 -12 5 -12 10 0 12 -10 13 -30 0z m60 -40 c0 -5 -4 -10 -10
-10 -5 0 -10 5 -10 10 0 6 5 10 10 10 6 0 10 -4 10 -10z m67 -52 c-3 -8 -6 -5
-6 6 -1 11 2 17 5 13 3 -3 4 -12 1 -19z m3 -79 c0 -5 -4 -9 -10 -9 -5 0 -10 7
-10 16 0 8 5 12 10 9 6 -3 10 -10 10 -16z"/>
<path d="M777 3423 c-10 -9 -9 -23 1 -23 5 0 9 7 9 15 0 17 -1 18 -10 8z"/>
<path d="M833 3358 c16 -6 33 -6 37 -2 5 5 -7 10 -28 11 -37 2 -37 2 -9 -9z"/>
<path d="M810 3340 c0 -5 5 -10 10 -10 6 0 10 5 10 10 0 6 -4 10 -10 10 -5 0
-10 -4 -10 -10z"/>
<path d="M709 3285 c-3 -5 -3 -26 0 -45 4 -19 9 -30 12 -25 3 6 3 26 0 45 -4
19 -9 31 -12 25z"/>
<path d="M3965 2810 c-3 -5 -1 -10 4 -10 6 0 11 5 11 10 0 6 -2 10 -4 10 -3 0
-8 -4 -11 -10z"/>
</g>
</svg>
